<svg xmlns="http://www.w3.org/2000/svg" viewBox="0 0 1280 760" width="100%" preserveAspectRatio="xMidYMid meet" role="img" aria-label="Plate 03 — Featured Work, system diagram">
  <!--
    PLATE 03 / FEATURED WORK
    Six modules drawn as labelled components on a 2x3 plate.
    Each cell carries a module ID (MOD.NN), a layer tag, a stack list,
    and a status line.  Module 01 (AtlasBrief) is annotated with an
    orange callout — "currently in service" — the only colour on the
    plate.  Connector hairline runs across the top edge of the grid,
    establishing that these are siblings on the same drawing.
  -->
  <style>
    .mono { font-family: 'IBM Plex Mono', 'JetBrains Mono', ui-monospace, 'SF Mono', Menlo, Consolas, monospace; }
    @keyframes breathe { 0%,100% { opacity: 1; } 50% { opacity: 0.35; } }
    .live { animation: breathe 2.4s ease-in-out infinite; }
  </style>

  <rect width="1280" height="760" fill="#EDE6D6"/>

  <!-- plate borders -->
  <rect x="20" y="20" width="1240" height="720" fill="none" stroke="#0B1F33" stroke-width="0.8"/>
  <rect x="34" y="34" width="1212" height="692" fill="none" stroke="#5C6A78" stroke-width="0.4" stroke-dasharray="2 4" opacity="0.55"/>

  <!-- crop marks -->
  <g stroke="#0B1F33" stroke-width="0.7" fill="none">
    <path d="M 12 20 L 28 20 M 20 12 L 20 28"/>
    <path d="M 1252 20 L 1268 20 M 1260 12 L 1260 28"/>
    <path d="M 12 740 L 28 740 M 20 732 L 20 748"/>
    <path d="M 1252 740 L 1268 740 M 1260 732 L 1260 748"/>
  </g>

  <!-- ============ TOP STRIP ============ -->
  <g transform="translate(56, 70)">
    <text class="mono" font-size="18" font-weight="700" letter-spacing="3.6" fill="#0B1F33">FEATURED WORK  /  SYSTEM DIAGRAM</text>
    <line x1="0" y1="14" x2="280" y2="14" stroke="#0B1F33" stroke-width="0.7"/>
    <text class="mono" y="36" font-size="12" font-weight="500" letter-spacing="1.5" fill="#5C6A78">six modules  ⋅  shipped, in service, or under continued development</text>
  </g>
  <g transform="translate(1224, 70)" text-anchor="end">
    <text class="mono" font-size="12" font-weight="600" letter-spacing="2.4" fill="#0B1F33">DRAWN  ⋅  2026-06</text>
    <text class="mono" y="18" font-size="12" font-weight="600" letter-spacing="2.4" fill="#0B1F33">SCALE  ⋅  1:1</text>
    <text class="mono" y="36" font-size="12" font-weight="600" letter-spacing="2.4" fill="#0B1F33">SHEET  ⋅  3  /  7</text>
  </g>

  <line x1="48" y1="138" x2="1232" y2="138" stroke="#0B1F33" stroke-width="0.5"/>

  <!--
    ===========================================================================
    GRID — 2 rows x 3 columns. Each module 384w x 224h.
    Row 1 y=170, Row 2 y=420.
    Col 1 x=48, Col 2 x=448, Col 3 x=848.
    16px gutter between cells.
    ===========================================================================
  -->

  <!-- ============ MOD.01 — ATLASBRIEF (featured) ============ -->
  <g>
    <rect x="48" y="170" width="384" height="224" fill="#EDE6D6" stroke="#0B1F33" stroke-width="0.8"/>
    <!-- corner ticks -->
    <g stroke="#0B1F33" stroke-width="0.7">
      <line x1="48"  y1="162" x2="48"  y2="178"/>
      <line x1="432" y1="162" x2="432" y2="178"/>
      <line x1="48"  y1="386" x2="48"  y2="402"/>
      <line x1="432" y1="386" x2="432" y2="402"/>
    </g>
    <!-- header row -->
    <text class="mono" x="64"  y="194" font-size="12" font-weight="700" letter-spacing="2.5" fill="#0B1F33">MOD.01</text>
    <text class="mono" x="416" y="194" font-size="12" font-weight="700" letter-spacing="2.5" fill="#5C6A78" text-anchor="end">AGENT  ⋅  RAG</text>
    <line x1="64" y1="206" x2="416" y2="206" stroke="#5C6A78" stroke-width="0.4"/>
    <!-- title -->
    <text class="mono" x="64" y="244" font-size="22" font-weight="700" letter-spacing="0.5" fill="#0B1F33">ATLASBRIEF</text>
    <line x1="64" y1="252" x2="124" y2="252" stroke="#0B1F33" stroke-width="1.2"/>
    <!-- body description -->
    <g class="mono" font-size="12" font-weight="500" fill="#0B1F33">
      <text x="64" y="278">LangGraph travel planner.  RAG over</text>
      <text x="64" y="295">Postgres + pgvector.  Three Pydantic-</text>
      <text x="64" y="312">validated tools.  Two-model routing.</text>
    </g>
    <!-- meta rows -->
    <g class="mono" font-size="11" fill="#0B1F33">
      <text x="64" y="346" font-weight="700" letter-spacing="2">STACK</text>
      <text x="118" y="346" font-weight="500">python ⋅ langgraph ⋅ fastapi ⋅ react</text>
      <text x="64" y="368" font-weight="700" letter-spacing="2">STATUS</text>
      <text x="118" y="368" font-weight="700">in service</text>
      <circle cx="200" cy="365" r="4" fill="#E25E1E" class="live"/>
    </g>
  </g>

  <!-- callout arrow → AtlasBrief from above (orange, the only signal on plate) -->
  <g>
    <text class="mono" x="240" y="138" font-size="11" font-weight="700" letter-spacing="2" fill="#E25E1E" text-anchor="middle" font-style="italic">currently in service</text>
    <line x1="240" y1="146" x2="240" y2="170" stroke="#E25E1E" stroke-width="1.2"/>
    <polygon points="240,170 236,162 244,162" fill="#E25E1E"/>
  </g>

  <!-- ============ MOD.02 — ATELIER ============ -->
  <g>
    <rect x="448" y="170" width="384" height="224" fill="#EDE6D6" stroke="#0B1F33" stroke-width="0.8"/>
    <g stroke="#0B1F33" stroke-width="0.7">
      <line x1="448" y1="162" x2="448" y2="178"/>
      <line x1="832" y1="162" x2="832" y2="178"/>
      <line x1="448" y1="386" x2="448" y2="402"/>
      <line x1="832" y1="386" x2="832" y2="402"/>
    </g>
    <text class="mono" x="464" y="194" font-size="12" font-weight="700" letter-spacing="2.5" fill="#0B1F33">MOD.02</text>
    <text class="mono" x="816" y="194" font-size="12" font-weight="700" letter-spacing="2.5" fill="#5C6A78" text-anchor="end">ML  ⋅  PIPELINE</text>
    <line x1="464" y1="206" x2="816" y2="206" stroke="#5C6A78" stroke-width="0.4"/>
    <text class="mono" x="464" y="244" font-size="22" font-weight="700" letter-spacing="0.5" fill="#0B1F33">ATELIER</text>
    <line x1="464" y1="252" x2="524" y2="252" stroke="#0B1F33" stroke-width="1.2"/>
    <g class="mono" font-size="12" font-weight="500" fill="#0B1F33">
      <text x="464" y="278">Plain-English property → grounded</text>
      <text x="464" y="295">prices.  LLM extracts features, Random</text>
      <text x="464" y="312">Forest predicts (R² 0.90), LLM grounds.</text>
    </g>
    <g class="mono" font-size="11" fill="#0B1F33">
      <text x="464" y="346" font-weight="700" letter-spacing="2">STACK</text>
      <text x="518" y="346" font-weight="500">python ⋅ scikit-learn ⋅ openai ⋅ fastapi</text>
      <text x="464" y="368" font-weight="700" letter-spacing="2">STATUS</text>
      <text x="518" y="368" font-weight="500">shipped  ⋅  R² 0.90</text>
    </g>
  </g>

  <!-- ============ MOD.03 — TRIAGE COCKPIT ============ -->
  <g>
    <rect x="848" y="170" width="384" height="224" fill="#EDE6D6" stroke="#0B1F33" stroke-width="0.8"/>
    <g stroke="#0B1F33" stroke-width="0.7">
      <line x1="848"  y1="162" x2="848"  y2="178"/>
      <line x1="1232" y1="162" x2="1232" y2="178"/>
      <line x1="848"  y1="386" x2="848"  y2="402"/>
      <line x1="1232" y1="386" x2="1232" y2="402"/>
    </g>
    <text class="mono" x="864"  y="194" font-size="12" font-weight="700" letter-spacing="2.5" fill="#0B1F33">MOD.03</text>
    <text class="mono" x="1216" y="194" font-size="12" font-weight="700" letter-spacing="2.5" fill="#5C6A78" text-anchor="end">RAG  ⋅  BENCHMARK</text>
    <line x1="864" y1="206" x2="1216" y2="206" stroke="#5C6A78" stroke-width="0.4"/>
    <text class="mono" x="864" y="244" font-size="22" font-weight="700" letter-spacing="0.5" fill="#0B1F33">TRIAGE COCKPIT</text>
    <line x1="864" y1="252" x2="924" y2="252" stroke="#0B1F33" stroke-width="1.2"/>
    <g class="mono" font-size="12" font-weight="500" fill="#0B1F33">
      <text x="864" y="278">RAG vs. plain LLM.  Local LogReg vs.</text>
      <text x="864" y="295">zero-shot.  20K tickets benchmarked.</text>
      <text x="864" y="312">Recommends shipping path at 10K/hr.</text>
    </g>
    <g class="mono" font-size="11" fill="#0B1F33">
      <text x="864" y="346" font-weight="700" letter-spacing="2">STACK</text>
      <text x="918" y="346" font-weight="500">python ⋅ chroma ⋅ scikit-learn ⋅ fastapi</text>
      <text x="864" y="368" font-weight="700" letter-spacing="2">STATUS</text>
      <text x="918" y="368" font-weight="500">benchmark complete</text>
    </g>
  </g>

  <!-- ============ MOD.04 — BIOMEDICAL NER ============ -->
  <g>
    <rect x="48" y="420" width="384" height="224" fill="#EDE6D6" stroke="#0B1F33" stroke-width="0.8"/>
    <g stroke="#0B1F33" stroke-width="0.7">
      <line x1="48"  y1="412" x2="48"  y2="428"/>
      <line x1="432" y1="412" x2="432" y2="428"/>
      <line x1="48"  y1="636" x2="48"  y2="652"/>
      <line x1="432" y1="636" x2="432" y2="652"/>
    </g>
    <text class="mono" x="64"  y="444" font-size="12" font-weight="700" letter-spacing="2.5" fill="#0B1F33">MOD.04</text>
    <text class="mono" x="416" y="444" font-size="12" font-weight="700" letter-spacing="2.5" fill="#5C6A78" text-anchor="end">DEEP LEARNING  ⋅  NLP</text>
    <line x1="64" y1="456" x2="416" y2="456" stroke="#5C6A78" stroke-width="0.4"/>
    <text class="mono" x="64" y="494" font-size="22" font-weight="700" letter-spacing="0.5" fill="#0B1F33">BIOMEDICAL NER</text>
    <line x1="64" y1="502" x2="124" y2="502" stroke="#0B1F33" stroke-width="1.2"/>
    <g class="mono" font-size="12" font-weight="500" fill="#0B1F33">
      <text x="64" y="528">From-scratch NER on BC5CDR.  BiLSTM-</text>
      <text x="64" y="545">CRF + Viterbi, char-CNN, attention,</text>
      <text x="64" y="562">GloVe.  Ablation studies.  Live demo.</text>
    </g>
    <g class="mono" font-size="11" fill="#0B1F33">
      <text x="64" y="596" font-weight="700" letter-spacing="2">STACK</text>
      <text x="118" y="596" font-weight="500">pytorch ⋅ nlp ⋅ crf ⋅ gradio</text>
      <text x="64" y="618" font-weight="700" letter-spacing="2">STATUS</text>
      <text x="118" y="618" font-weight="500">shipped  ⋅  87% F1</text>
    </g>
  </g>

  <!-- ============ MOD.05 — ODOO AUCTION ============ -->
  <g>
    <rect x="448" y="420" width="384" height="224" fill="#EDE6D6" stroke="#0B1F33" stroke-width="0.8"/>
    <g stroke="#0B1F33" stroke-width="0.7">
      <line x1="448" y1="412" x2="448" y2="428"/>
      <line x1="832" y1="412" x2="832" y2="428"/>
      <line x1="448" y1="636" x2="448" y2="652"/>
      <line x1="832" y1="636" x2="832" y2="652"/>
    </g>
    <text class="mono" x="464" y="444" font-size="12" font-weight="700" letter-spacing="2.5" fill="#0B1F33">MOD.05</text>
    <text class="mono" x="816" y="444" font-size="12" font-weight="700" letter-spacing="2.5" fill="#5C6A78" text-anchor="end">ERP  ⋅  PRODUCTION</text>
    <line x1="464" y1="456" x2="816" y2="456" stroke="#5C6A78" stroke-width="0.4"/>
    <text class="mono" x="464" y="494" font-size="22" font-weight="700" letter-spacing="0.5" fill="#0B1F33">ODOO AUCTION</text>
    <line x1="464" y1="502" x2="524" y2="502" stroke="#0B1F33" stroke-width="1.2"/>
    <g class="mono" font-size="12" font-weight="500" fill="#0B1F33">
      <text x="464" y="528">Sole developer, Mobile Arts.  Bid</text>
      <text x="464" y="545">validation, proxy bidding, anti-</text>
      <text x="464" y="562">sniping, Buy Now, payment, QWeb.</text>
    </g>
    <g class="mono" font-size="11" fill="#0B1F33">
      <text x="464" y="596" font-weight="700" letter-spacing="2">STACK</text>
      <text x="518" y="596" font-weight="500">odoo 18 ⋅ python ⋅ postgresql ⋅ qweb</text>
      <text x="464" y="618" font-weight="700" letter-spacing="2">STATUS</text>
      <text x="518" y="618" font-weight="500">deployed  ⋅  internship deliverable</text>
    </g>
  </g>

  <!-- ============ MOD.06 — DEBUGMASTER ============ -->
  <g>
    <rect x="848" y="420" width="384" height="224" fill="#EDE6D6" stroke="#0B1F33" stroke-width="0.8"/>
    <g stroke="#0B1F33" stroke-width="0.7">
      <line x1="848"  y1="412" x2="848"  y2="428"/>
      <line x1="1232" y1="412" x2="1232" y2="428"/>
      <line x1="848"  y1="636" x2="848"  y2="652"/>
      <line x1="1232" y1="636" x2="1232" y2="652"/>
    </g>
    <text class="mono" x="864"  y="444" font-size="12" font-weight="700" letter-spacing="2.5" fill="#0B1F33">MOD.06</text>
    <text class="mono" x="1216" y="444" font-size="12" font-weight="700" letter-spacing="2.5" fill="#5C6A78" text-anchor="end">MOBILE  ⋅  ANDROID</text>
    <line x1="864" y1="456" x2="1216" y2="456" stroke="#5C6A78" stroke-width="0.4"/>
    <text class="mono" x="864" y="494" font-size="22" font-weight="700" letter-spacing="0.5" fill="#0B1F33">DEBUGMASTER</text>
    <line x1="864" y1="502" x2="924" y2="502" stroke="#0B1F33" stroke-width="1.2"/>
    <g class="mono" font-size="12" font-weight="500" fill="#0B1F33">
      <text x="864" y="528">Java + Firebase Android app.  Learning</text>
      <text x="864" y="545">paths, AI mentor, XP / streaks, multi-</text>
      <text x="864" y="562">player debug battles.  MVVM + Hilt.</text>
    </g>
    <g class="mono" font-size="11" fill="#0B1F33">
      <text x="864" y="596" font-weight="700" letter-spacing="2">STACK</text>
      <text x="918" y="596" font-weight="500">java ⋅ android ⋅ firebase ⋅ room</text>
      <text x="864" y="618" font-weight="700" letter-spacing="2">STATUS</text>
      <text x="918" y="618" font-weight="500">shipped  ⋅  educational</text>
    </g>
  </g>

  <!-- ============ MARGINAL NOTE (rotated, hand-set) ============ -->
  <g transform="translate(64, 686) rotate(-1.4)">
    <text class="mono" font-size="12" font-weight="500" letter-spacing="0.4" fill="#5C6A78" font-style="italic">— click any module label to open the underlying repository.  modules</text>
    <text class="mono" y="17" font-size="12" font-weight="500" letter-spacing="0.4" fill="#5C6A78" font-style="italic">  marked "in service" are receiving continued attention.</text>
  </g>

  <!-- ============ BOTTOM STRIP ============ -->
  <line x1="48" y1="694" x2="1232" y2="694" stroke="#0B1F33" stroke-width="0.5"/>
  <text class="mono" x="56"   y="718" font-size="11" font-weight="700" letter-spacing="2.8" fill="#0B1F33">Y-H  ⋅  BRT  ⋅  2026</text>
  <text class="mono" x="640"  y="718" font-size="11" font-weight="500" letter-spacing="2" fill="#5C6A78" text-anchor="middle">06  MODULES  ⋅  01  IN SERVICE  ⋅  05  SHIPPED</text>
  <text class="mono" x="1224" y="718" font-size="11" font-weight="700" letter-spacing="2.8" fill="#0B1F33" text-anchor="end">SYSTEM.001  /  SHEET 3</text>
</svg>
